<svg id="Layer_1" data-name="Layer 1" xmlns="http://www.w3.org/2000/svg" viewBox="0 0 688 688"><defs><style>.cls-1{fill:#fff;}</style></defs><circle cx="344" cy="344" r="344"/><path class="cls-1" d="M640.88,367.33q-21.75,21.75-42.2,27.49t-36.44,4.48q-16-1.26-24.3-5.12c-5.55-2.56-7.47-3.4-5.75-2.56q-14.09,17.92-32.61,42.2a386.63,386.63,0,0,1-44.76,48.59,310.82,310.82,0,0,1-60.74,43.48q-34.53,19.18-80.56,26.86-38.37,6.38-65.23,7t-44.75-12.15Q177.94,529.74,178,499q0-35.79,8.95-55,5.1-10.21,11.51-24.29t16.63-32L342.93,157.6q12.76,0,19.82,7.67a108,108,0,0,1,12.79,17.27,175.24,175.24,0,0,0,12.79,18.54q7,9,22.37,11.51L261.08,482.41q-30.69,61.4-1.27,61.39,35.78,0,68.41-21.1a288.82,288.82,0,0,0,60.11-52.43,477.64,477.64,0,0,0,49.23-67.14q21.72-35.79,35.8-63.94-14.08-16.6-23-50.51t0-69.7q3.82-15.34,8.94-31.33a153.27,153.27,0,0,1,12.79-29.41A76.32,76.32,0,0,1,490,136.5a37.33,37.33,0,0,1,24.29-8.31h10.24q31.93,6.42,49.23,28.13T592.93,212q1.92,33.9-10.87,76.09t-40.92,88.23q11.5,7.68,36.45,9t62-26.86c4.25-3.4,6.39-3.61,6.39-.64S644.28,363.93,640.88,367.33Zm-157.29-46q14.06-29.42,21.74-66.5t10.23-92.07Q513,144.82,506,147.37t-14.7,15.35a255.72,255.72,0,0,0-15.35,30.69q-7.67,17.93-8.95,29.41-5.13,28.14-2.56,53.07T483.59,321.29Z"/><path class="cls-1" d="M42,357.73c0-3,2.14-2.76,6.39.64q37.11,28.14,62,26.86t36.45-9q-28.11-46-40.92-88.23T95.07,212q1.92-33.87,19.18-55.63t49.23-28.13h10.24A37.33,37.33,0,0,1,198,136.5a76.32,76.32,0,0,1,17.91,21.74,153.27,153.27,0,0,1,12.79,29.41q5.11,16,8.94,31.33,9,35.82,0,69.7t-23,50.51q14.09,28.14,35.8,63.94a477.64,477.64,0,0,0,49.23,67.14,288.82,288.82,0,0,0,60.11,52.43q32.61,21.09,68.41,21.1,29.43,0-1.27-61.39L277.3,212.59q15.34-2.55,22.37-11.51a175.24,175.24,0,0,0,12.79-18.54,108,108,0,0,1,12.79-17.27q7-7.67,19.82-7.67L473,387.78q10.26,17.93,16.63,32t11.51,24.29q9,19.18,9,55,0,30.69-25.58,48.59-17.9,12.76-44.75,12.15t-65.23-7q-46-7.68-80.56-26.86a310.82,310.82,0,0,1-60.74-43.48,386.63,386.63,0,0,1-44.76-48.59q-18.53-24.27-32.61-42.2c1.72-.84-.2,0-5.75,2.56s-13.63,4.28-24.3,5.12-22.8-.64-36.44-4.48-27.7-13-42.2-27.49C43.72,363.93,42,360.73,42,357.73Zm181.59-81.84Q226.17,251,221,222.82q-1.26-11.5-8.95-29.41a255.72,255.72,0,0,0-15.35-30.69Q189.07,150,182,147.37t-9.59,15.35q2.56,55,10.23,92.07t21.74,66.5Q221,300.85,223.59,275.89Z"/><path d="M331.51,198.37,312.89,217l24.3,10.16a17.67,17.67,0,0,0,13.62,0L375.11,217l-18.62-18.63A17.68,17.68,0,0,0,331.51,198.37Z"/><circle class="cls-1" cx="344" cy="211" r="7"/></svg>